PathFileType	4	(X/Y/Z)	G:\マイドライブ\biomec\experimentalData\240725\CJ1.trc
DataRate	CameraRate	NumFrames	NumMarkers	Units	OrigDataRate	OrigDataStartFrame	OrigNumFrames
200.00	200.00	      4	52	mm	200.00	198	      1582
Frame#	Time	handR			wrRI			wrRO			elbRI			elbRO			shRF			shRU			shRB			handL			wrLI			wrLO			elbLI			elbLO			shLF			shLU			shLB			toeR			baRI			baRO			heelR			anRI			anRO			knRI			knRO			troR			toeL			baLI			baLO			heelL			anLI			anLO			knLI			knLO			troL			head			earR			earL			clav			c7			ribR			ribL			xiph			ASISR			ASISL			PSISR			PSISL			t8			t11			L1			L3			LS			COX			
		X1	Y1	Z1	X2	Y2	Z2	X3	Y3	Z3	X4	Y4	Z4	X5	Y5	Z5	X6	Y6	Z6	X7	Y7	Z7	X8	Y8	Z8	X9	Y9	Z9	X10	Y10	Z10	X11	Y11	Z11	X12	Y12	Z12	X13	Y13	Z13	X14	Y14	Z14	X15	Y15	Z15	X16	Y16	Z16	X17	Y17	Z17	X18	Y18	Z18	X19	Y19	Z19	X20	Y20	Z20	X21	Y21	Z21	X22	Y22	Z22	X23	Y23	Z23	X24	Y24	Z24	X25	Y25	Z25	X26	Y26	Z26	X27	Y27	Z27	X28	Y28	Z28	X29	Y29	Z29	X30	Y30	Z30	X31	Y31	Z31	X32	Y32	Z32	X33	Y33	Z33	X34	Y34	Z34	X35	Y35	Z35	X36	Y36	Z36	X37	Y37	Z37	X38	Y38	Z38	X39	Y39	Z39	X40	Y40	Z40	X41	Y41	Z41	X42	Y42	Z42	X43	Y43	Z43	X44	Y44	Z44	X45	Y45	Z45	X46	Y46	Z46	X47	Y47	Z47	X48	Y48	Z48	X49	Y49	Z49	X50	Y50	Z50	X51	Y51	Z51	X52	Y52	Z52	

198	0.985	319.09174	1421.43640	822.01733	322.17181	1473.41296	901.53632	374.90549	1424.36096	906.36420	453.99438	1525.52661	1113.16699	378.78015	1525.22729	1129.36462	476.31061	1436.47290	1407.96912	426.29678	1533.30945	1397.86890	430.49063	1480.72302	1432.82288	865.72766	1508.38623	763.71448	853.42114	1565.18091	839.82928	824.30792	1494.63745	843.13947	762.15399	1590.69324	1063.75696	835.67999	1604.70813	1069.29211	791.95184	1490.15015	1359.91162	826.31140	1547.02661	1377.16174	788.92078	1602.86499	1338.63245	387.23267	1379.52600	38.58512	437.09332	1459.60962	52.58527	319.66541	1479.28943	78.00117	415.24344	1642.17566	147.31773	452.06030	1530.85364	172.25221	357.51904	1550.12256	181.95357	513.27838	1339.67224	480.51556	405.65433	1326.09656	489.15292	409.72125	1427.18787	881.11188	656.39124	1393.06262	54.85873	599.94562	1457.81775	54.57224	708.99506	1497.56506	52.59101	628.14417	1676.01282	41.53941	596.92578	1579.87158	134.92256	682.57709	1610.76990	108.95115	612.48218	1499.40430	477.59482	720.27448	1492.23535	474.78470	750.72723	1469.68091	860.98615	701.94342	1419.37158	1690.80359	594.18280	1394.84631	1537.39893	744.48969	1434.22571	1508.11658	639.72766	1442.26270	1380.19055	633.06628	1554.51550	1470.49133	492.06375	1427.97034	1111.05920	712.90906	1454.06116	1087.26880	624.39380	1406.74841	1228.05640	486.45044	1385.62012	977.12177	705.89941	1412.67273	974.27631	514.97748	1565.28430	992.55328	638.00787	1573.13538	991.94055	595.83948	1622.18054	1253.26489	587.38959	1593.70947	1126.99902	585.52612	1575.17078	1070.68835	579.47620	1570.50623	1024.30212	577.94714	1579.36792	984.45148	570.85938	1596.22961	880.78088	
199	0.990	319.93988	1419.94446	822.60675	322.41360	1472.03601	902.15564	375.85760	1422.94983	906.90790	454.79846	1526.26111	1114.11658	379.52972	1524.27979	1129.84448	477.84113	1434.90308	1408.26465	427.52975	1531.73987	1398.20300	431.71838	1479.40027	1433.09460	866.48492	1509.97534	763.27472	852.35522	1566.72656	839.98016	825.42535	1495.16162	843.20227	762.56024	1591.10144	1063.55359	836.07587	1605.46216	1069.02319	793.33203	1490.27197	1359.51245	827.21497	1547.44177	1376.83643	789.54126	1603.17407	1338.33533	387.47830	1375.21094	40.39364	437.33231	1455.41504	54.40340	319.99622	1474.97302	80.30791	415.77982	1637.77478	149.49249	452.73068	1526.38928	173.91811	358.02563	1545.56592	184.09863	514.59149	1334.51819	481.93115	406.62134	1320.83838	490.48331	410.53754	1424.82727	881.60181	656.37457	1393.01880	54.74267	600.27319	1458.19312	54.57665	709.00525	1497.53687	52.59734	626.75293	1676.46436	42.82566	596.85974	1579.68665	134.93109	682.51636	1610.65002	108.96453	612.57019	1498.34351	477.54657	720.44489	1491.18579	474.55078	751.08691	1469.15454	860.85645	704.02295	1418.51306	1690.44116	595.83636	1394.05994	1537.22632	745.95569	1433.79224	1507.66772	641.12433	1441.71167	1380.06799	634.27600	1553.96777	1470.41638	492.79608	1426.31970	1111.42395	713.82330	1453.54395	1087.10669	625.66595	1405.94202	1228.03943	487.57617	1384.20605	977.51532	706.91339	1412.06580	974.19440	515.05811	1563.98889	992.76813	638.15503	1572.17834	991.83002	596.32220	1621.23157	1253.10327	587.59979	1592.59949	1126.96338	586.01776	1573.88916	1070.69727	579.55151	1569.40381	1024.27063	577.96759	1578.11475	984.42761	570.53680	1594.95166	880.86389	
200	0.995	320.85513	1418.11328	823.21582	323.53821	1470.20251	902.21375	376.55231	1421.68164	907.30194	455.34677	1525.48901	1114.30713	380.35532	1523.38879	1130.22693	479.44489	1433.63135	1408.46826	427.24701	1530.33459	1398.67810	433.12015	1477.62854	1433.31055	866.91382	1511.02673	762.92151	852.77094	1567.82422	839.63660	826.03339	1495.97510	842.71490	762.99689	1591.37915	1063.30432	836.45685	1606.05774	1068.72510	794.36469	1490.47913	1359.30688	828.04700	1547.71204	1376.48035	790.06622	1603.48462	1338.11902	387.78732	1370.65955	42.29832	437.56366	1450.48706	56.00148	320.21512	1470.35352	82.20222	416.40427	1632.89429	151.34558	453.31644	1521.46484	175.84505	359.07382	1541.46436	186.00558	515.80603	1329.83521	483.25024	407.62921	1315.53052	491.88553	411.19202	1423.75122	881.94922	656.32617	1392.97595	54.61811	600.19641	1457.96960	54.50634	708.98920	1497.54980	52.55179	626.03864	1677.15625	43.13805	596.77155	1579.49133	134.95230	682.46832	1610.51221	109.00161	612.63513	1496.91016	477.42746	720.48065	1490.13123	474.34674	751.43060	1468.62183	860.57196	706.12115	1417.89331	1689.83069	597.90839	1393.26343	1537.03918	746.64160	1434.19055	1508.32031	642.45703	1441.07446	1380.02734	635.38397	1553.45471	1470.38794	493.62061	1425.04126	1111.75586	714.73938	1453.13171	1086.87573	626.93567	1405.40112	1227.97937	488.58725	1382.63892	977.96289	708.03168	1411.33508	974.10413	515.47998	1562.28430	992.93048	638.31415	1571.22949	991.77307	596.62213	1620.42810	1253.15564	587.83612	1591.44507	1126.85498	586.35925	1572.88232	1070.92151	579.74860	1568.18652	1024.28259	578.08984	1576.90112	984.38617	570.36963	1593.39209	880.76031	
201	1.000	321.55347	1416.53113	823.65161	324.16156	1468.59973	902.68738	377.68689	1420.18945	907.73682	455.67679	1523.04309	1114.16895	380.84457	1522.00464	1130.77246	480.59241	1432.11230	1408.64050	428.31497	1528.74121	1398.90906	434.19516	1476.36243	1433.53577	867.41962	1512.42981	762.59711	852.94086	1568.90833	839.22186	826.64905	1496.71594	842.25647	763.23236	1591.73865	1063.15247	836.83173	1606.79199	1068.37964	795.50024	1490.66809	1358.94421	828.92139	1548.13513	1376.12756	790.50873	1603.76270	1337.77979	388.20258	1365.48694	43.98214	438.00955	1445.40906	57.48899	320.60736	1465.00208	83.94468	416.66296	1628.06226	152.57983	454.07843	1516.79236	177.50237	359.27512	1535.92029	187.64983	516.89606	1325.14453	484.45190	408.87781	1310.53125	493.26093	411.80374	1420.93469	882.47583	656.30591	1392.93750	54.46593	600.14856	1457.80945	54.39133	709.04694	1497.56909	52.56185	626.30743	1676.81531	43.06064	596.67609	1579.26636	134.98141	682.43866	1610.37671	109.08771	612.68622	1495.79565	477.35760	720.50769	1489.17786	474.21158	751.84381	1467.98425	860.38452	708.17303	1417.18591	1689.80188	599.55164	1392.48682	1537.10608	748.11090	1433.84229	1508.08069	643.99512	1440.50330	1380.04370	636.42145	1552.76733	1470.36414	494.80902	1423.39307	1112.06860	715.49915	1452.64294	1086.83557	628.39349	1404.56360	1228.00049	489.75436	1381.14404	978.41278	708.68719	1410.74915	973.98608	515.72437	1560.77649	993.12292	638.43970	1570.36145	991.75494	596.99805	1619.48718	1253.19702	588.14240	1590.61646	1126.73669	586.70844	1571.64539	1070.84961	580.02930	1567.04883	1024.27563	578.10736	1575.84216	984.49109	570.00757	1592.05725	880.82349	
